<?xml version="1.0" encoding="utf-8" ?><svg xmlns="http://www.w3.org/2000/svg" xmlns:xlink="http://www.w3.org/1999/xlink" width="1024" height="1024" viewBox="0 0 1024 1024"><defs><linearGradient id="gradient_0" gradientUnits="userSpaceOnUse" x1="841.58112" y1="1119.8573" x2="181.91887" y2="-96.35733"><stop offset="0" stop-color="#000A17"/><stop offset="1" stop-color="#068820"/></linearGradient></defs><path fill="url(#gradient_0)" d="M0 0L1024 0L1024 1024L0 1024L0 0Z"/><defs><linearGradient id="gradient_1" gradientUnits="userSpaceOnUse" x1="602.56531" y1="771.75873" x2="463.58978" y2="244.71263"><stop offset="0" stop-color="#7B5B0D"/><stop offset="1" stop-color="#A98B1A"/></linearGradient></defs><path fill="url(#gradient_1)" d="M509.893 237.728C548.79 236.464 588.87 249.142 620.493 271.207C668.064 304.399 696.385 351.355 706.044 408.265C706.606 412.675 708.691 418.942 705.879 422.917C704.385 425.03 699.692 424.638 698.724 422.161C696.453 416.348 696.972 409.513 695.684 403.398C694.294 396.793 692.688 390.268 690.693 383.811C680.245 349.554 660.744 318.753 634.248 294.656C558.719 225.365 446.037 233.584 377.542 308.473C344.225 344.837 326.785 392.986 329.089 442.251C330.594 473.804 343.788 502.092 367.366 522.894C380.116 534.143 394.74 542.601 411.999 542.995C442.192 543.684 455.386 530.825 474.892 511.448L498.93 487.631C517.716 468.757 533.23 451.777 561.73 450.323C595.931 448.579 615.112 473.368 636.677 495.381C650.171 509.019 663.578 522.742 676.898 536.55C687.385 547.473 699.18 558.281 708.233 570.252C719.948 585.743 717.983 610.455 702.112 622.408C695.15 627.652 687.686 629.252 679.116 629.565C681.11 631.594 683.059 633.611 684.879 635.775C699.82 653.548 692.16 682.785 670.324 690.861C664.365 693.065 660.772 693.363 654.369 693.432C659.626 704.657 660.795 716.525 655.077 727.896C650.67 736.538 643.026 743.089 633.809 746.118C623.08 749.641 613.309 747.903 603.489 742.894C603.52 743.899 603.52 744.904 603.488 745.909C603.166 755.201 598.476 765.099 591.69 771.448C584.495 778.079 574.973 781.602 565.195 781.251C546.041 780.595 535.878 768.177 523.542 755.468L501.887 733.237C490.83 721.983 479.595 710.891 468.596 699.582C466.705 697.637 465.776 696.046 467.44 693.492C472.312 686.019 477.967 694.94 481.495 698.538C483.787 700.896 486.008 703.162 488.255 705.446C501.204 718.738 514.24 731.944 527.363 745.065C535.823 753.508 545.015 764.396 555.893 769.164C559.179 770.106 562.063 770.622 565.464 770.732C573.213 771.04 580.748 768.15 586.305 762.74C592.359 756.767 597.086 740.3 591.473 733.286C582.015 721.467 569.75 710.065 558.933 699.303L503.395 643.34C500.896 640.788 499.523 636.877 503.128 634.247C506.63 631.693 510.005 635.145 512.469 637.63C535.453 660.817 558.01 684.465 581.187 707.468C589.432 714.542 597.316 726.46 606.044 732.587C622.295 743.995 646.945 735.393 648.824 714.512C650.517 695.69 636.001 687.505 624.544 675.954L569.513 620.061C561.954 612.351 554.033 604.91 546.866 596.879C545.302 595.127 544.981 589.918 547.602 589.412C554.185 588.141 560.095 596.13 564.193 600.273C570.572 606.651 576.885 613.094 583.13 619.601C595.32 632.289 607.9 644.295 620.055 657.102C627.332 663.678 634.858 674.575 643.215 679.614C665.215 692.756 691.562 670.09 680.587 646.584C677.772 640.553 664.786 629.956 659.511 624.692L605.057 569.794C598.671 563.259 592.297 556.981 585.688 550.363C582.37 547.04 581.607 541.13 587.903 540.153C588.916 539.995 591.191 541.454 591.991 542.258C614.628 565.002 637.23 587.816 659.658 610.776C665.12 616.381 671.472 620.375 679.659 620.155C702.72 619.535 713.154 594.191 700.525 576.2C696.505 570.473 691.116 565.458 686.204 560.465L665.537 539.471L625.298 498.317C617.726 490.569 610.327 482.712 602.495 475.22C584.379 457.891 556.399 455.427 535.205 468.615C524.558 475.239 517.642 482.669 508.862 491.426L485.307 514.619C464.878 535.021 450.712 551.99 419.226 552.644C360.224 553.869 319.334 493.37 318.851 438.999C318.269 373.484 347.901 312.962 401.028 274.587C435.196 249.906 468.075 239 509.893 237.728Z"/><defs><linearGradient id="gradient_2" gradientUnits="userSpaceOnUse" x1="439.55371" y1="798.08246" x2="410.39926" y2="588.2851"><stop offset="0" stop-color="#73580D"/><stop offset="1" stop-color="#A6811A"/></linearGradient></defs><path fill="url(#gradient_2)" d="M321.557 599.945C329.783 599.734 327.738 606.554 328.298 612.428C336.203 695.452 400.212 759.682 480.872 775.505C496.545 778.579 510.873 778.445 526.672 777.507C529.113 780.699 532.171 782.65 533.746 785.345L533.391 786.043L530.904 786.481C513.683 789.253 489.259 787.219 472.265 783.422C421.312 772.035 376.007 742.595 348.137 698.023C332.648 673.25 323.051 648.498 319.238 619.415C318.595 614.512 317.033 608.494 318.069 603.632C318.494 601.638 319.909 600.944 321.557 599.945Z"/></svg>